<svg id="Layer_1" data-name="Layer 1" xmlns="http://www.w3.org/2000/svg" viewBox="0 0 819.44 731.31"><defs><style>.cls-1{fill:#f9c;stroke:#f9c;stroke-width:40px;}.cls-1,.cls-2,.cls-3{stroke-miterlimit:10;}.cls-2{fill:#6cf;stroke:#6cf;}.cls-2,.cls-3{stroke-width:20px;}.cls-3{fill:#fc3;stroke:#fc3;}</style></defs><title>CROS Logo Thick</title><path class="cls-1" d="M272.5,275c7.1-13.09,48.59-76.13,91.52-95.35,5.38-2.41,33.36-14.54,71.59-12.54,63.27,3.31,106.86,37.23,133.84,94.07,4.65-1.49,9.48-3.22,14.4-4.6,46.88-13.13,104,14.09,123.33,58.76a70.91,70.91,0,0,1,6.19,30.6c-.1,3.3,1,4.36,4.12,5.37,47.85,15.6,76.63,48.13,84.27,98,9.47,61.79-35.11,121.9-96.91,131.71a144.06,144.06,0,0,1-22.38,1.78q-199.47.16-398.95,0C210.2,582.78,149,533.9,133,462.74a147.17,147.17,0,0,1-3.56-29.25c-.42-20.81,4.33-38.27,7-48.2,0,0,.41-1.52.8-2.86C145.45,353.9,208.09,260.41,272.5,275Zm426.43,85.57c.34-7,1.41-13.86.84-20.54-1.74-20.44-12.42-36.21-27.51-49.29-27.4-23.75-70-33.69-106.46-12.4-1.22.71-2.57,1.22-3.9,1.84-19.21-65.56-81.83-104.46-140.9-100-69.61,5.3-111.44,44.73-130.22,110.35-10,.77-20.13,1-30.14,2.41-76.3,10.9-130.07,86.39-115.59,162,13,67.76,69.7,114.55,139,114.57q199.46.06,398.92-.07a113.65,113.65,0,0,0,21.36-1.9c47.51-9.18,83-49.66,85.13-96.81,2.29-49.89-28.55-93.13-76.27-106.82C708.45,362.58,703.57,361.65,698.93,360.57Z" transform="translate(-3.61 -66.02)"/><path class="cls-2" d="M476.26,627.6c11,12,21,23.84,26.78,38.45a28.63,28.63,0,0,1-16.33,37.78c-15.38,5.74-32.09-1.8-37.57-17a27.5,27.5,0,0,1,.1-20C455.14,651.78,465.29,639.73,476.26,627.6Z" transform="translate(-3.61 -66.02)"/><path class="cls-2" d="M302.22,627.55C313.4,640,324.09,652.31,329.62,668a28.53,28.53,0,0,1-10.47,32.34,29.88,29.88,0,0,1-34.19-.19,28.64,28.64,0,0,1-10.1-32.51C280.53,652.2,291,639.94,302.22,627.55Z" transform="translate(-3.61 -66.02)"/><path class="cls-2" d="M647.24,627.55c11.26,12.56,22.08,24.95,27.54,40.9,3.91,11.41-.45,24.36-10.17,31.59a29.88,29.88,0,0,1-34.19.44c-9.65-6.7-14.43-19.53-11.1-30.88,3.8-12.91,12-23.24,20.33-33.46C641.94,633.33,644.46,630.69,647.24,627.55Z" transform="translate(-3.61 -66.02)"/><path class="cls-2" d="M389,709.26c11.09,12.17,21.44,24.32,27.17,39.55a28.68,28.68,0,0,1-9.85,33,29.84,29.84,0,0,1-35-.31A28.6,28.6,0,0,1,362,748.4C367.79,733.35,378.06,721.36,389,709.26Z" transform="translate(-3.61 -66.02)"/><path class="cls-2" d="M563.1,709.27c10.79,12,20.78,23.74,26.65,38.32a28.85,28.85,0,0,1-9.13,34c-10.18,7.66-25.41,7.58-35.4-.2a28.91,28.91,0,0,1-8.74-34.16C542.44,732.91,552.18,721.16,563.1,709.27Z" transform="translate(-3.61 -66.02)"/><path class="cls-3" d="M265.5,218c-5-8.92-3-5.17-8.26-14.62,0-.05.8-.93,1.61-1.74L314.7,145.8c1.3-1.3,2.85-2.44,3.77-4,.63-1,.37-2.61.51-3.95a20.09,20.09,0,0,0-3.95.29c-.7.18-1.2,1.1-1.79,1.69q-23.68,23.68-47.33,47.38c-4.42,4.45-8.57,9.17-13,13.89-15.59-13.81-32.67-20.88-52.26-22.1-.11-1.65-.27-3-.27-4.26q0-39.24,0-78.48c0-1.33.34-2.83-.14-4s-1.82-1.91-2.78-2.84c-.78.92-1.89,1.74-2.24,2.8a13.1,13.1,0,0,0-.13,4q0,31.49,0,63c0,6.47,0,12.93,0,19.77-20,1.21-37.28,8.36-52.05,21.6-1.52-1.45-2.73-2.56-3.9-3.72L84.37,142.13c-1.18-1.18-2.21-2.62-3.61-3.43-1.19-.69-2.81-.62-4.24-.89a34.09,34.09,0,0,0,.87,4.62c.23.7,1.12,1.19,1.71,1.78q28.09,28.1,56.18,56.22c1.26,1.26,2.44,2.59,3.93,4.18-13.53,14.82-20.36,32.16-21.64,51.89H78.42c-15.66,0-31.33,0-47,.15-1.42,0-2.83,1.51-4.24,2.32a28.77,28.77,0,0,0,4.37,2.8c1,.42,2.3.09,3.47.09h82.61a83.43,83.43,0,0,0,21.31,51.74l-38.49,38.87c-7.62,7.69-15.32,15.31-22.8,23.13-1,1-.93,3-1.36,4.6,1.7-.32,3.4-.62,5.08-1,.27-.06.47-.45.71-.69q29.17-28.42,58.33-56.85c1.43-1.39,4-9.07,5.09-10.68l-19.67,42.63c-6.65,6.59-13.24,13.09-19.8,19.64-5.31,5.29-10.52,10.68-15.87,15.94-7.09,7-16.64,7.24-23.18.78s-6.26-16.39.89-23.55Q92.05,342.17,116.3,318c1.64-1.63,3.47-3.08,4.12-3.65l-16.3-39.23H36.79c-2.5,0-5,.08-7.5,0-9-.42-15.87-7.55-15.68-16.18.19-8.78,7-15.56,16.16-15.66,16.33-.16,32.66-.05,49-.06,7.83,0,15.67.11,23.49-.12,1.36,0,3.64-1.35,3.87-2.42a99.36,99.36,0,0,1,15.38-35.46C108,191.81,94.7,178.56,81.36,165.3q-6.73-6.7-13.42-13.44c-7.16-7.24-7.55-17-1-23.53s16.37-6.15,23.61,1.06q24.81,24.67,49.45,49.51a28,28,0,0,1,3.06,4.59l.65-2.14,37.94-15.77c0-4.35,0-10,0-15.62,0-18.83,0-37.66,0-56.49,0-10.33,6.53-17.35,15.93-17.43s16,7,16,17.25c.05,22.5,0,45,0,67.49,0,2,0,4,0,4.82l39.15,16.17c3.33-3.4,7.92-8.17,12.6-12.85q20.12-20.18,40.3-40.29c4.82-4.79,10.61-6.13,17-3.85s9.68,6.91,10.35,13.45c.56,5.52-1.7,10-5.6,13.83q-24.82,24.66-49.52,49.45c-1.17,1.17-2.5,2.18-3.92,3.41,2.81,4.87,3,6.69,5.49,11.09l-12,15Z" transform="translate(-3.61 -66.02)"/></svg>