<svg id="Layer_1" data-name="Layer 1" xmlns="http://www.w3.org/2000/svg" viewBox="0 0 778.44 669.31"><defs><style>.cls-1{fill:#f9c;}.cls-2{fill:#6cf;}.cls-3{fill:#fc3;}</style></defs><title>CROS Logo</title><path class="cls-1" d="M124.33,369.13c-6.65,6.59-13.24,13.09-19.8,19.64C99.23,394.06,94,399.45,88.67,404.7c-7.09,7-16.64,7.24-23.18.78s-6.26-16.39.89-23.55q24.18-24.25,48.43-48.43c1.64-1.63,3.47-3.08,4.12-3.65l-16.3-39.23H35.29c-2.5,0-5,.08-7.5,0-9-.42-15.87-7.55-15.68-16.18.19-8.78,7-15.56,16.16-15.66,16.33-.16,32.66-.05,49-.06,7.83,0,15.67.11,23.49-.12,1.36,0,3.64-1.35,3.87-2.42A99.36,99.36,0,0,1,120,220.69c-13.46-13.37-26.81-26.63-40.15-39.89q-6.73-6.7-13.42-13.44c-7.16-7.24-7.55-17-1-23.53s16.37-6.15,23.61,1.06q24.81,24.67,49.45,49.51a28,28,0,0,1,3.06,4.59l.65-2.14,37.94-15.77c0-4.35,0-10,0-15.62,0-18.83,0-37.66,0-56.49,0-10.33,6.53-17.35,15.93-17.43s16,7,16,17.25c.05,22.5,0,45,0,67.49,0,2,0,4,0,4.82l39.15,16.17c3.33-3.4,7.92-8.17,12.6-12.85q20.12-20.18,40.3-40.29c4.82-4.79,10.61-6.13,17-3.85s9.68,6.91,10.35,13.45c.56,5.52-1.7,10-5.6,13.83Q301.12,192.21,276.43,217c-1.17,1.17-2.5,2.18-3.92,3.41l7.9,13.68c32.44-53.77,79.44-82.78,142.7-79.48S530,191.84,557,248.69c4.65-1.49,9.48-3.22,14.4-4.6,46.88-13.13,104,14.09,123.33,58.76a70.91,70.91,0,0,1,6.19,30.6c-.1,3.3,1,4.36,4.12,5.37,47.85,15.6,76.63,48.13,84.27,98,9.47,61.79-35.11,121.9-96.91,131.71A144.06,144.06,0,0,1,670,570.28q-199.47.16-398.95,0c-73.34,0-134.56-48.92-150.5-120.09-5.84-26.07-4.48-51.94,3.45-77.45.29-.95.55-1.9.8-2.86C124.81,369.81,124.63,369.64,124.33,369.13Zm562.09-21.06c.34-7,1.41-13.86.84-20.54-1.74-20.44-12.42-36.21-27.51-49.29-27.4-23.75-70-33.69-106.46-12.4-1.22.71-2.57,1.22-3.9,1.84-19.21-65.56-81.83-104.46-140.9-100-69.61,5.3-111.44,44.73-130.22,110.35-10,.77-20.13,1-30.14,2.41-76.3,10.9-130.07,86.39-115.59,162,13,67.76,69.7,114.55,139,114.57Q471,557.09,670.5,557a113.65,113.65,0,0,0,21.36-1.9c47.51-9.18,83-49.66,85.13-96.81,2.29-49.89-28.55-93.13-76.27-106.82C696,350.08,691.07,349.15,686.43,348.07ZM255.74,218.88c0-.05.8-.93,1.61-1.74L313.2,161.3c1.3-1.3,2.85-2.44,3.77-4,.63-1,.37-2.61.51-3.95a20.09,20.09,0,0,0-3.95.29c-.7.18-1.2,1.1-1.79,1.69Q288.06,179,264.41,202.75c-4.42,4.45-8.57,9.17-13,13.89-15.59-13.81-32.67-20.88-52.26-22.1-.11-1.65-.27-3-.27-4.26q0-39.24,0-78.48c0-1.33.34-2.83-.14-4s-1.82-1.91-2.78-2.84c-.78.92-1.89,1.74-2.24,2.8a13.1,13.1,0,0,0-.13,4q0,31.49,0,63c0,6.47,0,12.93,0,19.77-20,1.21-37.28,8.36-52.05,21.6-1.52-1.45-2.73-2.56-3.9-3.72L82.87,157.63c-1.18-1.18-2.21-2.62-3.61-3.43-1.19-.69-2.81-.62-4.24-.89a34.09,34.09,0,0,0,.87,4.62c.23.7,1.12,1.19,1.71,1.78q28.09,28.1,56.18,56.22c1.26,1.26,2.44,2.59,3.93,4.18-13.53,14.82-20.36,32.16-21.64,51.89H76.92c-15.66,0-31.33,0-47,.15-1.42,0-2.83,1.51-4.24,2.32a28.77,28.77,0,0,0,4.37,2.8c1,.42,2.3.09,3.47.09h82.61a83.43,83.43,0,0,0,21.31,51.74L98.95,368c-7.62,7.69-15.32,15.31-22.8,23.13-1,1-.93,3-1.36,4.6,1.7-.32,3.4-.62,5.08-1,.27-.06.47-.45.71-.69q29.17-28.42,58.33-56.85a32.84,32.84,0,0,0,4.09-4.36c29.79-42.29,70.42-64.87,122.14-67.43,1.19-.06,3.23-.49,3.4-1.14,1.55-5.88,6.11-11.39,2.37-18C265.88,237.32,261,228.33,255.74,218.88Z" transform="translate(-12.11 -91.52)"/><path class="cls-2" d="M463.76,601.1c11,12,21,23.84,26.78,38.45a28.63,28.63,0,0,1-16.33,37.78c-15.38,5.74-32.09-1.8-37.57-17a27.5,27.5,0,0,1,.1-20C442.64,625.28,452.79,613.23,463.76,601.1Zm1.36,16.83-2.84.14c-5.11,8.86-10.77,17.46-15.14,26.68-3.34,7-.08,15.51,6.05,19.91a18.4,18.4,0,0,0,21.46-.18c6-4.44,9.09-13.08,5.71-20C475.9,635.3,470.26,626.74,465.12,617.93Z" transform="translate(-12.11 -91.52)"/><path class="cls-2" d="M289.72,601.05c11.18,12.47,21.87,24.75,27.4,40.48a28.53,28.53,0,0,1-10.47,32.34,29.88,29.88,0,0,1-34.19-.19,28.64,28.64,0,0,1-10.1-32.51C268,625.7,278.51,613.44,289.72,601.05Zm.74,16c-7.51,9.38-13.73,17.5-17.4,27.23a17.71,17.71,0,0,0,5.66,20.17,18.63,18.63,0,0,0,21.48.35c6.27-4.47,9.53-13.17,6.07-20.34C301.85,635.26,296.15,626.73,290.46,617Z" transform="translate(-12.11 -91.52)"/><path class="cls-2" d="M634.74,601.05C646,613.61,656.81,626,662.28,642c3.91,11.41-.45,24.36-10.17,31.59a29.88,29.88,0,0,1-34.19.44c-9.65-6.7-14.43-19.53-11.1-30.88,3.8-12.91,12-23.24,20.33-33.46C629.44,606.83,632,604.19,634.74,601.05Zm.27,17.28c-6.12,5.72-15.19,19.93-17.3,26.91a18.07,18.07,0,0,0,6.1,19.22,18.61,18.61,0,0,0,21.48.22,17.56,17.56,0,0,0,6.57-19C648.54,635.17,641.76,626.79,635,618.34Z" transform="translate(-12.11 -91.52)"/><path class="cls-2" d="M376.49,682.76c11.09,12.17,21.44,24.32,27.17,39.55a28.68,28.68,0,0,1-9.85,33,29.84,29.84,0,0,1-35-.31,28.6,28.6,0,0,1-9.29-33.12C355.29,706.85,365.56,694.86,376.49,682.76Zm1,16.82-2,0c-5,8.17-10.44,16.08-14.79,24.57a17.25,17.25,0,0,0,4.81,22,18.72,18.72,0,0,0,21.89.08,17.39,17.39,0,0,0,4.94-22C388,715.68,382.5,707.76,377.5,699.58Z" transform="translate(-12.11 -91.52)"/><path class="cls-2" d="M550.6,682.77c10.79,12,20.78,23.74,26.65,38.32a28.85,28.85,0,0,1-9.13,34c-10.18,7.66-25.41,7.58-35.4-.2A28.91,28.91,0,0,1,524,720.77C529.94,706.41,539.68,694.66,550.6,682.77Zm1.19,17-2.34-.13c-5,8.2-10.43,16.14-14.77,24.66a17.26,17.26,0,0,0,4.68,21.62c6.12,4.81,15.74,5,21.91.41a17.31,17.31,0,0,0,5.26-21.88C562.21,715.92,556.75,708,551.79,699.76Z" transform="translate(-12.11 -91.52)"/><path class="cls-3" d="M264,233.5c-5-8.92-3-5.17-8.26-14.62,0-.05.8-.93,1.61-1.74L313.2,161.3c1.3-1.3,2.85-2.44,3.77-4,.63-1,.37-2.61.51-3.95a20.09,20.09,0,0,0-3.95.29c-.7.18-1.2,1.1-1.79,1.69Q288.06,179,264.41,202.75c-4.42,4.45-8.57,9.17-13,13.89-15.59-13.81-32.67-20.88-52.26-22.1-.11-1.65-.27-3-.27-4.26q0-39.24,0-78.48c0-1.33.34-2.83-.14-4s-1.82-1.91-2.78-2.84c-.78.92-1.89,1.74-2.24,2.8a13.1,13.1,0,0,0-.13,4q0,31.49,0,63c0,6.47,0,12.93,0,19.77-20,1.21-37.28,8.36-52.05,21.6-1.52-1.45-2.73-2.56-3.9-3.72L82.87,157.63c-1.18-1.18-2.21-2.62-3.61-3.43-1.19-.69-2.81-.62-4.24-.89a34.09,34.09,0,0,0,.87,4.62c.23.7,1.12,1.19,1.71,1.78q28.09,28.1,56.18,56.22c1.26,1.26,2.44,2.59,3.93,4.18-13.53,14.82-20.36,32.16-21.64,51.89H76.92c-15.66,0-31.33,0-47,.15-1.42,0-2.83,1.51-4.24,2.32a28.77,28.77,0,0,0,4.37,2.8c1,.42,2.3.09,3.47.09h82.61a83.43,83.43,0,0,0,21.31,51.74L98.95,368c-7.62,7.69-15.32,15.31-22.8,23.13-1,1-.93,3-1.36,4.6,1.7-.32,3.4-.62,5.08-1,.27-.06.47-.45.71-.69q29.17-28.42,58.33-56.85a32.84,32.84,0,0,0,4.09-4.36l-18.66,36.31c-6.65,6.59-13.24,13.09-19.8,19.64C99.23,394.06,94,399.45,88.67,404.7c-7.09,7-16.64,7.24-23.18.78s-6.26-16.39.89-23.55q24.18-24.25,48.43-48.43c1.64-1.63,3.47-3.08,4.12-3.65l-16.3-39.23H35.29c-2.5,0-5,.08-7.5,0-9-.42-15.87-7.55-15.68-16.18.19-8.78,7-15.56,16.16-15.66,16.33-.16,32.66-.05,49-.06,7.83,0,15.67.11,23.49-.12,1.36,0,3.64-1.35,3.87-2.42A99.36,99.36,0,0,1,120,220.69c-13.46-13.37-26.81-26.63-40.15-39.89q-6.73-6.7-13.42-13.44c-7.16-7.24-7.55-17-1-23.53s16.37-6.15,23.61,1.06q24.81,24.67,49.45,49.51a28,28,0,0,1,3.06,4.59l.65-2.14,37.94-15.77c0-4.35,0-10,0-15.62,0-18.83,0-37.66,0-56.49,0-10.33,6.53-17.35,15.93-17.43s16,7,16,17.25c.05,22.5,0,45,0,67.49,0,2,0,4,0,4.82l39.15,16.17c3.33-3.4,7.92-8.17,12.6-12.85q20.12-20.18,40.3-40.29c4.82-4.79,10.61-6.13,17-3.85s9.68,6.91,10.35,13.45c.56,5.52-1.7,10-5.6,13.83Q301.12,192.21,276.43,217c-1.17,1.17-2.5,2.18-3.92,3.41l7.9,13.68L272.12,254Z" transform="translate(-12.11 -91.52)"/></svg>